<svg width="38" height="42" viewBox="0 0 38 42" fill="none" xmlns="http://www.w3.org/2000/svg">
<path d="M2.38159 41.3848H22.0006C22.9467 41.3848 23.7137 40.6178 23.7137 39.6717V2.32847C23.7137 1.38241 22.9467 0.615417 22.0006 0.615417H2.38159C1.43544 0.615417 0.668457 1.38241 0.668457 2.32847V39.6717C0.668457 40.6178 1.43544 41.3848 2.38159 41.3848V41.3848Z" fill="#FEE97D"/>
<path d="M22.0005 0.61615H18.7192C19.6654 0.61615 20.4324 1.38306 20.4324 2.3292V39.6724C20.4324 40.6185 19.6654 41.3854 18.7192 41.3854H22.0005C22.9466 41.3854 23.7136 40.6185 23.7136 39.6724V2.32912C23.7136 1.38306 22.9466 0.61615 22.0005 0.61615V0.61615Z" fill="#FEE45A"/>
<path d="M12.1912 38.6439C13.3977 38.6439 14.3757 37.6661 14.3757 36.4599C14.3757 35.2537 13.3977 34.2759 12.1912 34.2759C10.9848 34.2759 10.0068 35.2537 10.0068 36.4599C10.0068 37.6661 10.9848 38.6439 12.1912 38.6439Z" fill="#7BACDF"/>
<path d="M9.34205 3.78311H15.0401C15.9862 3.78311 16.7532 3.01612 16.7532 2.07005V0.616211H7.62891V2.07005C7.62891 3.01612 8.3959 3.78311 9.34205 3.78311V3.78311Z" fill="#7BACDF"/>
<path d="M19.5454 29.9706H4.83679V15.2646H19.5454V29.9706Z" fill="#FAF7F7"/>
<path d="M23.1984 12.4773C22.3882 11.2279 21.9299 9.72911 21.9669 8.12065C22.0632 3.94504 25.5367 0.582929 29.7134 0.616398C33.9079 0.649948 37.3019 4.04356 37.3361 8.23796C37.3703 12.4391 33.9688 15.9241 29.768 15.9868C28.1429 16.0111 26.6319 15.53 25.3803 14.6918L22.832 15.5831C22.5087 15.6962 22.1973 15.3864 22.3088 15.0624L23.1984 12.4773Z" fill="#FAF7F7"/>
<path d="M29.713 0.616398C29.131 0.611722 28.5628 0.673163 28.0154 0.793421C31.4489 1.54285 34.0247 4.58677 34.0545 8.23796C34.0845 11.9186 31.4772 15.0493 28.0059 15.8109C28.5723 15.9345 29.1619 15.9959 29.7676 15.9868C33.9683 15.9241 37.37 12.4391 37.3357 8.23796C37.3014 4.04356 33.9075 0.649949 29.713 0.616398V0.616398Z" fill="#F9F3F1"/>
<path d="M34.4889 8.30137C34.4889 8.79585 33.9137 9.19346 33.7688 9.63963C33.6187 10.102 33.8451 10.7607 33.565 11.1456C33.2821 11.5344 32.5837 11.5212 32.195 11.8041C31.8101 12.0842 31.6084 12.754 31.146 12.9041C30.6998 13.049 30.1449 12.6305 29.6505 12.6305C29.156 12.6305 28.6011 13.049 28.155 12.9041C27.6925 12.754 27.4908 12.0842 27.1059 11.8041C26.7172 11.5212 26.0189 11.5344 25.7359 11.1456C25.4558 10.7607 25.6823 10.102 25.5321 9.63954C25.3872 9.19338 24.812 8.79577 24.812 8.30129C24.812 7.8068 25.3872 7.4092 25.5321 6.96303C25.6822 6.50062 25.4558 5.84191 25.7359 5.45702C26.0189 5.06827 26.7172 5.08148 27.1059 4.79855C27.4908 4.51842 27.6925 3.84863 28.155 3.69851C28.6011 3.55365 29.156 3.97217 29.6505 3.97217C30.1449 3.97217 30.6998 3.55365 31.146 3.69851C31.6084 3.84863 31.8101 4.51842 32.195 4.79855C32.5837 5.08148 33.2821 5.06827 33.565 5.4571C33.8451 5.84199 33.6186 6.5007 33.7688 6.96311C33.9138 7.40936 34.4889 7.80688 34.4889 8.30137Z" fill="#CEEFDD"/>
<path d="M12.1912 33.6606C10.6475 33.6606 9.3916 34.9164 9.3916 36.4599C9.53237 40.1684 14.8507 40.1674 14.9908 36.4599C14.9908 34.9164 13.7349 33.6606 12.1912 33.6606V33.6606ZM12.1912 38.0287C11.326 38.0287 10.6221 37.325 10.6221 36.4599C10.701 34.3815 13.6818 34.3821 13.7603 36.4599C13.7603 37.3249 13.0564 38.0287 12.1912 38.0287V38.0287Z" fill="black"/>
<path d="M19.5455 14.6498H4.83691C4.49714 14.6498 4.22168 14.9253 4.22168 15.2651V24.2518C4.24686 25.0652 5.4272 25.0646 5.45214 24.2518V15.8803H18.9303V29.3558H5.45214V27.5297C5.42696 26.7163 4.24662 26.7169 4.22168 27.5297V29.9711C4.22168 30.3108 4.49714 30.5863 4.83691 30.5863H19.5455C19.8853 30.5863 20.1608 30.3108 20.1608 29.9711V15.2651C20.1608 14.9253 19.8853 14.6498 19.5455 14.6498Z" fill="black"/>
<path d="M17.5811 20.3397C17.9208 20.3397 18.1963 20.0642 18.1963 19.7245V17.2717C18.1963 16.932 17.9208 16.6565 17.5811 16.6565H15.1279C14.7882 16.6565 14.5127 16.932 14.5127 17.2717V19.7245C14.5127 20.0642 14.7882 20.3397 15.1279 20.3397H17.5811ZM15.7432 17.887H16.9658V19.1093H15.7432V17.887Z" fill="black"/>
<path d="M17.5811 24.9772H15.1279C14.7882 24.9772 14.5127 25.2526 14.5127 25.5924V28.0451C14.5127 28.3849 14.7882 28.6604 15.1279 28.6604H17.5811C17.9208 28.6604 18.1963 28.3849 18.1963 28.0451V25.5924C18.1963 25.2526 17.9208 24.9772 17.5811 24.9772ZM16.9658 27.4299H15.7432V26.2076H16.9658V27.4299Z" fill="black"/>
<path d="M6.74902 20.3397H9.20217C9.54195 20.3397 9.81741 20.0642 9.81741 19.7245V17.2717C9.81741 16.932 9.54195 16.6565 9.20217 16.6565H6.74902C6.40925 16.6565 6.13379 16.932 6.13379 17.2717V19.7245C6.13379 20.0643 6.40925 20.3397 6.74902 20.3397V20.3397ZM7.36426 17.887H8.58694V19.1093H7.36426V17.887Z" fill="black"/>
<path d="M13.1543 16.6563C12.8145 16.6563 12.5391 16.9318 12.5391 17.2715V21.6331C12.5391 21.9729 12.8145 22.2484 13.1543 22.2484H16.9661V23.0947H15.1282C14.3148 23.1199 14.3154 24.3002 15.1282 24.3252H17.5814C17.9211 24.3252 18.1966 24.0497 18.1966 23.7099V21.6331C18.1966 21.2934 17.9211 21.0179 17.5814 21.0179H13.7695V17.2715C13.7695 16.9318 13.4941 16.6563 13.1543 16.6563V16.6563Z" fill="black"/>
<path d="M11.1416 16.6563C10.8018 16.6563 10.5264 16.9318 10.5264 17.2715V18.0317C10.5516 18.8451 11.7319 18.8446 11.7568 18.0317V17.2715C11.7568 16.9318 11.4815 16.6563 11.1416 16.6563Z" fill="black"/>
<path d="M13.1542 24.9772C12.8145 24.9772 12.539 25.2526 12.539 25.5924V27.4299H11.1416C10.3282 27.4551 10.3287 28.6354 11.1416 28.6604H13.1542C13.494 28.6604 13.7695 28.3849 13.7695 28.0451V25.5924C13.7695 25.2526 13.494 24.9772 13.1542 24.9772Z" fill="black"/>
<path d="M6.13379 28.0457C6.13379 28.3855 6.40925 28.661 6.74902 28.661H9.20217C9.54195 28.661 9.81741 28.3855 9.81741 28.0457V23.7104C9.79222 22.897 8.61187 22.8975 8.58694 23.7104V27.4305H7.36426V22.2731H11.1412C11.481 22.2731 11.7565 21.9977 11.7565 21.6579V19.7249C11.7313 18.9115 10.5509 18.9121 10.526 19.7249V21.0426H6.74902C6.40925 21.0426 6.13379 21.3181 6.13379 21.6579V28.0457Z" fill="black"/>
<path d="M10.5264 23.71V25.5926C10.5516 26.406 11.7319 26.4054 11.7568 25.5926V24.3253H13.1542C13.9677 24.3001 13.9671 23.1197 13.1542 23.0948H11.1416C10.8018 23.0948 10.5264 23.3702 10.5264 23.71Z" fill="black"/>
<path d="M6.78807 8.91693H17.5945C18.408 8.89175 18.4074 7.7114 17.5945 7.68646H6.78807C5.97465 7.71165 5.97523 8.89199 6.78807 8.91693V8.91693Z" fill="black"/>
<path d="M8.83885 10.8694C8.02543 10.8946 8.02601 12.075 8.83885 12.0999H15.5438C16.3572 12.0747 16.3566 10.8944 15.5438 10.8694H8.83885Z" fill="black"/>
<path d="M35.8761 2.81128C35.6512 2.55649 35.2624 2.53221 35.0077 2.75706C34.7529 2.9819 34.7286 3.37065 34.9535 3.62543C38.9401 8.06674 35.7222 15.3217 29.7585 15.3712C28.3107 15.3924 26.9181 14.9809 25.7225 14.1801C25.5617 14.0725 25.3596 14.0468 25.177 14.1105L23.028 14.8622L23.78 12.677C23.8415 12.4981 23.8174 12.3008 23.7144 12.1421C22.9405 10.9487 22.5489 9.5629 22.5819 8.13442C22.6261 3.16393 28.0956 -0.267992 32.5836 1.86596C32.8929 2.00705 33.2577 1.87096 33.3988 1.56179C33.54 1.25269 33.4038 0.88774 33.0947 0.746565C30.259 -0.60317 26.5942 -0.052251 24.3015 1.9712C24.129 0.856486 23.1629 0.000412784 22.0006 0.000412784H16.7532C13.4317 0.00164325 5.62049 -0.000489555 2.38158 0.000412784C1.09772 0.000412784 0.0532227 1.04483 0.0532227 2.32869V39.6719C0.0532227 40.9557 1.09772 42.0002 2.38158 42.0002H22.0006C23.2844 42.0002 24.3289 40.9557 24.3289 39.6719V15.7106L25.2999 15.371C26.6368 16.196 28.2066 16.6253 29.7768 16.6014C36.7818 16.5424 40.5553 8.02425 35.8761 2.81128V2.81128ZM16.138 1.23087V2.06947C16.138 2.67478 15.6455 3.16729 15.0402 3.16729H9.34214C8.73684 3.16729 8.24432 2.67478 8.24432 2.06947V1.23087H16.138ZM23.0985 39.6719C23.0985 40.2772 22.606 40.7697 22.0006 40.7697H2.38158C1.7762 40.7697 1.28368 40.2773 1.28368 39.6719V2.32869C1.28368 1.72339 1.7762 1.23087 2.38158 1.23087H7.01378V2.06947C7.01378 3.35326 8.05828 4.39775 9.34206 4.39775H15.0401C16.3239 4.39775 17.3684 3.35326 17.3684 2.06947V1.23087H22.0006C22.6059 1.23087 23.0985 1.7233 23.0985 2.32869V3.22471C21.0388 5.7529 20.7628 9.73812 22.5211 12.5535L21.7267 14.8617C21.4237 15.7422 22.3213 16.3673 23.0984 16.141V39.6719H23.0985Z" fill="black"/>
<path d="M32.557 4.30114C32.4791 4.24437 32.3723 4.09015 32.2782 3.95406C31.7072 3.12883 31.0569 2.90775 30.108 3.23637C29.8029 3.39715 29.4978 3.39715 29.1928 3.23637C28.2439 2.908 27.5938 3.12875 27.0227 3.95406C26.8807 4.25011 26.6466 4.41992 26.3204 4.46339C25.3588 4.75379 24.9528 5.30799 24.972 6.31254C25.0319 6.63542 24.944 6.90973 24.7085 7.13532C24.0887 7.94743 24.0887 8.65536 24.7085 9.46747C24.944 9.69305 25.0318 9.96728 24.972 10.2902C24.9527 11.2947 25.3588 11.8489 26.3204 12.1393C26.6466 12.1829 26.8807 12.3527 27.0227 12.6487C27.6072 13.4934 28.216 13.7047 29.1929 13.3663C29.498 13.2055 29.803 13.2055 30.108 13.3663C31.057 13.6948 31.7072 13.474 32.2783 12.6486C32.4203 12.3526 32.6543 12.1828 32.9804 12.1393C33.9421 11.8489 34.3481 11.2946 34.3289 10.2901C34.269 9.9672 34.3568 9.69297 34.5924 9.46738C35.2122 8.65536 35.2122 7.94743 34.5924 7.13532C34.3568 6.90973 34.2691 6.63542 34.3289 6.31254C34.3481 5.30799 33.9421 4.75379 32.9804 4.46339C32.8198 4.41491 32.6379 4.35995 32.557 4.30114V4.30114ZM33.0671 5.81855C33.1064 5.88131 33.1015 6.1365 33.0986 6.289C33.0851 6.99201 33.2186 7.36345 33.6141 7.88188C33.8991 8.25529 33.8991 8.34749 33.6141 8.7209C33.2185 9.23917 33.085 9.61086 33.0986 10.3137C33.1073 10.7681 33.0604 10.8298 32.6246 10.9614C32.0144 11.1457 31.6289 11.4244 31.2662 11.9485C31.0079 12.3219 30.9379 12.3517 30.5106 12.2035C29.8954 11.9906 29.4054 11.9906 28.7902 12.2035C28.3633 12.3513 28.2932 12.3222 28.0345 11.9485C27.672 11.4243 27.2862 11.1456 26.6762 10.9613C26.2407 10.8298 26.1935 10.7682 26.2023 10.3137C26.2158 9.61086 26.0824 9.23909 25.6867 8.7209C25.4018 8.34757 25.4017 8.25521 25.6867 7.88188C26.0824 7.36353 26.2157 6.99201 26.2024 6.289C26.1937 5.83471 26.2405 5.77302 26.6763 5.64136C27.2864 5.45712 27.672 5.17838 28.0347 4.6542C28.3113 4.25446 28.2932 4.22698 28.7904 4.39916C29.4054 4.6122 29.8957 4.6122 30.5107 4.39916C30.9377 4.25151 31.0078 4.28047 31.2665 4.65428C31.6291 5.17838 32.0147 5.4572 32.6248 5.64145C32.7635 5.68328 33.0219 5.76129 33.0671 5.81855V5.81855Z" fill="black"/>
<path d="M31.0954 6.1597C30.8137 5.96963 30.4312 6.04387 30.2413 6.32565L28.0399 9.58877C27.8498 9.87046 27.9241 10.2528 28.2058 10.4429C28.4838 10.6315 28.8687 10.5608 29.0599 10.2769L31.2613 7.01381C31.4514 6.73211 31.3771 6.34968 31.0954 6.1597Z" fill="black"/>
<path d="M30.7511 9.31781C29.9593 9.31781 29.958 10.5483 30.7511 10.5483C31.5428 10.5483 31.5441 9.31781 30.7511 9.31781V9.31781Z" fill="black"/>
<path d="M28.5499 7.28485C29.3417 7.28485 29.343 6.05438 28.5499 6.05438C27.7581 6.05438 27.7568 7.28485 28.5499 7.28485Z" fill="black"/>
</svg>
