<svg width="42" height="42" viewBox="0 0 42 42" fill="none" xmlns="http://www.w3.org/2000/svg">
<path d="M33.4688 21L40.6875 13.7812L28.2188 1.3125L8.53125 21" fill="#78B75B"/>
<path d="M14.4375 21C14.4375 19.3207 15.078 17.6414 16.3597 16.3597C18.9223 13.797 23.0777 13.797 25.6403 16.3597C26.922 17.6414 27.5625 19.3207 27.5625 21" fill="#669E4F"/>
<path d="M25.4801 21.9281C25.4801 21.2272 25.2071 20.5677 24.711 20.0716C23.7201 19.08 21.9902 19.08 20.9999 20.0716L19.1434 18.215C19.6559 17.7038 20.4874 17.7045 20.9999 18.2157L21.9272 17.2871C20.9048 16.2647 19.2392 16.264 18.2154 17.2871L17.7515 16.8231L16.8229 17.7517L17.2875 18.2163C16.7914 18.7118 16.519 19.3707 16.519 20.0722C16.5184 20.7731 16.792 21.4326 17.2882 21.9287C17.7836 22.4242 18.4432 22.6972 19.144 22.6972C19.8449 22.6972 20.5038 22.4242 20.9993 21.9287L22.8558 23.7853C22.3433 24.2965 21.5118 24.2958 20.9993 23.7846L20.072 24.7132C20.5832 25.2244 21.2559 25.4804 21.9279 25.4804C22.5999 25.4804 23.2718 25.2244 23.7837 24.7132L24.2477 25.1772L25.1763 24.2486L24.7117 23.784C25.2071 23.2878 25.4801 22.629 25.4801 21.9281ZM20.0707 21.0002C19.5759 21.4956 18.7103 21.4956 18.2154 21.0002C17.9674 20.7521 17.8302 20.4227 17.8309 20.0722C17.8309 19.7218 17.9674 19.3923 18.2148 19.1443L20.0707 21.0002ZM21.9279 20.9995C22.4227 20.504 23.2883 20.504 23.7831 20.9995C24.0311 21.2476 24.1676 21.577 24.1676 21.9274C24.1676 22.2779 24.0311 22.6073 23.7837 22.8554L21.9279 20.9995Z" fill="#78B75B"/>
<path d="M31.6458 19.6349L30.7172 18.7063L35.8215 13.602L28.3967 6.17781L23.2924 11.2821L22.3638 10.3535L27.9321 4.78525C28.1886 4.52931 28.6041 4.52865 28.8606 4.78525L37.2141 13.138C37.3374 13.2614 37.4057 13.4281 37.4057 13.602C37.4057 13.7765 37.3374 13.9432 37.2141 14.0666L31.6458 19.6349Z" fill="#669E4F"/>
<path d="M28.8765 16.8399L29.8044 15.9107L30.7336 16.8386L29.8057 17.7679L28.8765 16.8399Z" fill="#96CC7F"/>
<path d="M30.7134 15.0024L31.6415 14.0743L32.57 15.0028L31.6419 15.9309L30.7134 15.0024Z" fill="#96CC7F"/>
<path d="M24.2358 12.2096L25.1651 11.2817L26.0926 12.2104L25.1633 13.1384L24.2358 12.2096Z" fill="#96CC7F"/>
<path d="M26.0742 10.3607L27.0023 9.43264L27.9308 10.3612L27.0028 11.2893L26.0742 10.3607Z" fill="#96CC7F"/>
<path d="M1.3125 21H40.6875V38.0625H1.3125V21Z" fill="#96CC7F"/>
<path d="M21 36.0937C24.6244 36.0937 27.5625 33.1556 27.5625 29.5312C27.5625 25.9069 24.6244 22.9688 21 22.9688C17.3756 22.9688 14.4375 25.9069 14.4375 29.5312C14.4375 33.1556 17.3756 36.0937 21 36.0937Z" fill="#78B75B"/>
<path d="M11.1562 38.0625L13.7812 40.6875L16.4062 38.0625" fill="#78B75B"/>
<path d="M21.6559 28.875H21.6546V26.25H21.6559C22.3791 26.25 22.9671 26.8387 22.9671 27.5625H24.2796C24.2796 26.1148 23.1023 24.9375 21.6559 24.9375H21.6546V24.2812H20.3428V24.9375C18.8951 24.9375 17.7178 26.1148 17.7178 27.5625C17.7178 29.0095 18.8951 30.1868 20.3428 30.1868V32.8118C19.6183 32.8118 19.0303 32.2232 19.0303 31.4993L17.7178 31.5C17.7178 32.947 18.8951 34.1243 20.3428 34.1243V34.7806H21.6546V34.1243H21.6559C23.1023 34.1243 24.2796 32.947 24.2796 31.4993C24.2796 30.0517 23.1023 28.875 21.6559 28.875ZM19.0303 27.5625C19.0303 26.8387 19.6183 26.25 20.3428 26.25V28.875C19.6189 28.875 19.0303 28.2857 19.0303 27.5625ZM21.6559 32.8118H21.6546V30.1868H21.6559C22.3791 30.1868 22.9671 30.7755 22.9671 31.5C22.9671 32.2232 22.3791 32.8118 21.6559 32.8118Z" fill="#669E4F"/>
<path d="M38.0609 36.0931H30.1865V34.7806H37.4046V24.2813H30.1865V22.9688H38.0609C38.4238 22.9688 38.7171 23.2621 38.7171 23.625V35.4375C38.7171 35.7998 38.4238 36.0931 38.0609 36.0931Z" fill="#669E4F"/>
<path d="M11.8118 36.0937H3.9375C3.57459 36.0937 3.28125 35.7997 3.28125 35.4375V23.625C3.28125 23.2621 3.57459 22.9688 3.93684 22.9688H11.8118L11.8125 24.2812H4.59375V34.7812H11.8118V36.0937Z" fill="#669E4F"/>
<path d="M30.1865 32.1562H31.4984V33.4688H30.1865V32.1562Z" fill="#78B75B"/>
<path d="M32.8115 32.1562H34.1234V33.4688H32.8115V32.1562Z" fill="#78B75B"/>
<path d="M30.1865 25.5938H31.4984V26.9062H30.1865V25.5938Z" fill="#78B75B"/>
<path d="M32.8115 25.5938H34.1234V26.9062H32.8115V25.5938Z" fill="#78B75B"/>
<path d="M7.875 25.5938H9.18684V26.9062H7.875V25.5938Z" fill="#78B75B"/>
<path d="M10.5 25.5938H11.8118V26.9062H10.5V25.5938Z" fill="#78B75B"/>
<path d="M7.875 32.1562H9.18684V33.4688H7.875V32.1562Z" fill="#78B75B"/>
<path d="M10.5 32.1562H11.8118V33.4688H10.5V32.1562Z" fill="#78B75B"/>
<path d="M40.6867 20.343H35.0528L41.1513 14.2452C41.2747 14.1218 41.3429 13.9551 41.3436 13.7812C41.3436 13.6066 41.2747 13.4399 41.1513 13.3166L28.6826 0.847807C28.426 0.591213 28.0106 0.592525 27.754 0.847807L8.2581 20.343H1.31104C0.948785 20.343 0.654785 20.637 0.654785 20.9993V38.0618C0.654785 38.424 0.948785 38.718 1.31104 38.718H10.8831L13.3158 41.1508C13.4398 41.2741 13.6065 41.3437 13.7811 41.343C13.955 41.343 14.1223 41.2741 14.2451 41.1514L16.6778 38.7187H40.6867C41.0489 38.7187 41.3429 38.4247 41.3429 38.0624V20.9999C41.3429 20.637 41.0489 20.343 40.6867 20.343V20.343ZM28.2179 2.24037L39.7588 13.7805L33.1963 20.343H28.1858C28.0355 18.6624 27.3117 17.1025 26.1042 15.895C23.2888 13.081 18.7095 13.081 15.8955 15.895C14.6874 17.1025 13.9629 18.663 13.8133 20.343H10.1159L28.2179 2.24037ZM17.8669 20.343C17.7783 19.9171 17.8978 19.461 18.2147 19.1441L19.4137 20.343H17.8669ZM24.9459 20.343C24.8737 20.2479 24.7963 20.1567 24.7109 20.0713C23.72 19.0797 21.9901 19.0797 20.9999 20.0713L19.1433 18.2148C19.6558 17.7036 20.4873 17.7036 20.9999 18.2155L21.9271 17.2869C20.9047 16.2644 19.2391 16.2638 18.2154 17.2869L17.7514 16.8229L16.8228 17.7515L17.2874 18.2161C16.7106 18.7923 16.4553 19.5739 16.5374 20.3437H15.133C15.2787 19.0148 15.864 17.7837 16.8241 16.8242C19.1263 14.5208 22.8734 14.5214 25.1769 16.8242C26.1357 17.783 26.721 19.0148 26.8674 20.3437H24.9459V20.343ZM13.7804 39.7588L12.7403 38.7187H14.8206L13.7804 39.7588ZM40.0304 37.4062H1.96729V21.6562H40.0304V37.4062Z" fill="black"/>
<path d="M19.0303 31.4992L17.7178 31.4999C17.7178 32.9469 18.8951 34.1242 20.3428 34.1242V34.7805H21.6546V34.1242H21.6559C23.1023 34.1242 24.2796 32.9469 24.2796 31.4992C24.2796 30.0515 23.1023 28.8742 21.6559 28.8742H21.6546V26.2492H21.6559C22.3791 26.2492 22.9671 26.8379 22.9671 27.5617H24.2796C24.2796 26.114 23.1023 24.9367 21.6559 24.9367H21.6546V24.2805H20.3428V24.9367C18.8951 24.9367 17.7178 26.114 17.7178 27.5617C17.7178 29.0087 18.8951 30.186 20.3428 30.186V32.811C19.6189 32.8117 19.0303 32.223 19.0303 31.4992ZM19.0303 27.5624C19.0303 26.8385 19.6183 26.2499 20.3428 26.2499V28.8749C19.6189 28.8749 19.0303 28.2855 19.0303 27.5624ZM21.6546 30.1867H21.6559C22.3791 30.1867 22.9671 30.7754 22.9671 31.4999C22.9671 32.223 22.3791 32.8117 21.6559 32.8117H21.6546V30.1867Z" fill="black"/>
<path d="M20.9993 36.7492C24.9788 36.7492 28.2174 33.5106 28.2174 29.5305C28.2174 25.5503 24.9788 22.3117 20.9993 22.3117C17.0192 22.3124 13.7812 25.5503 13.7812 29.5311C13.7812 33.5106 17.0192 36.7492 20.9993 36.7492V36.7492ZM20.9993 23.6249C24.2557 23.6249 26.9049 26.2741 26.9049 29.5311C26.9049 32.7874 24.2557 35.4374 20.9993 35.4374C17.7424 35.4374 15.0938 32.7881 15.0938 29.5311C15.0938 26.2741 17.7424 23.6249 20.9993 23.6249V23.6249Z" fill="black"/>
<path d="M38.7171 35.4368V23.625C38.7171 23.2621 38.4238 22.9688 38.0609 22.9688H30.1865V24.2812H37.4046V34.7812H30.1865V36.0937H38.0609C38.4238 36.0931 38.7171 35.7997 38.7171 35.4368Z" fill="black"/>
<path d="M3.9375 36.0937H11.8118V34.7812H4.59375V24.2812H11.8125L11.8118 22.9688H3.93684C3.57459 22.9688 3.28125 23.2621 3.28125 23.625V35.4375C3.28125 35.7997 3.57459 36.0937 3.9375 36.0937V36.0937Z" fill="black"/>
<path d="M30.1865 32.1562H31.4984V33.4688H30.1865V32.1562Z" fill="black"/>
<path d="M32.8115 32.1562H34.1234V33.4688H32.8115V32.1562Z" fill="black"/>
<path d="M30.1865 25.5938H31.4984V26.9062H30.1865V25.5938Z" fill="black"/>
<path d="M32.8115 25.5938H34.1234V26.9062H32.8115V25.5938Z" fill="black"/>
<path d="M28.3965 6.17781L35.8207 13.6026L30.7164 18.7069L31.6449 19.6355L37.2132 14.0672C37.3366 13.9439 37.4049 13.7772 37.4049 13.6026C37.4049 13.4287 37.3366 13.2614 37.2132 13.1387L28.8611 4.78525C28.6045 4.52865 28.1891 4.52931 27.9325 4.78525L22.3643 10.3535L23.2929 11.2821L28.3965 6.17781Z" fill="black"/>
<path d="M28.8569 16.8574L29.785 15.9293L30.7131 16.8574L29.785 17.7855L28.8569 16.8574Z" fill="black"/>
<path d="M30.7114 14.996L31.6395 14.0679L32.568 14.9964L31.64 15.9245L30.7114 14.996Z" fill="black"/>
<path d="M24.2358 12.2096L25.1651 11.2817L26.0926 12.2104L25.1633 13.1384L24.2358 12.2096Z" fill="black"/>
<path d="M26.0742 10.36L27.0023 9.43197L27.9308 10.3605L27.0028 11.2886L26.0742 10.36Z" fill="black"/>
<path d="M7.875 25.5938H9.18684V26.9062H7.875V25.5938Z" fill="black"/>
<path d="M10.5 25.5938H11.8118V26.9062H10.5V25.5938Z" fill="black"/>
<path d="M7.875 32.1562H9.18684V33.4688H7.875V32.1562Z" fill="black"/>
<path d="M10.5 32.1562H11.8118V33.4688H10.5V32.1562Z" fill="black"/>
</svg>
