<svg width="40" height="42" viewBox="0 0 40 42" fill="none" xmlns="http://www.w3.org/2000/svg">
<path d="M22.2969 41.3848H4.74219C2.93004 41.3848 1.46094 39.9157 1.46094 38.1035V3.89648C1.46094 2.08433 2.93004 0.615234 4.74219 0.615234H22.2969C24.109 0.615234 25.5781 2.08433 25.5781 3.89648V38.1035C25.5781 39.9157 24.109 41.3848 22.2969 41.3848Z" fill="#7B727B"/>
<path d="M22.2969 0.615234H19.8359C21.6481 0.615234 23.1172 2.08433 23.1172 3.89648V38.1035C23.1172 39.9157 21.6481 41.3848 19.8359 41.3848H22.2969C24.109 41.3848 25.5781 39.9157 25.5781 38.1035V3.89648C25.5781 2.08433 24.109 0.615234 22.2969 0.615234Z" fill="#686169"/>
<path d="M23.4453 3.89648V38.1035C23.4453 38.7378 22.9311 39.252 22.2969 39.252H4.74219C4.10792 39.252 3.59375 38.7378 3.59375 38.1035V3.89648C3.59375 3.26222 4.10792 2.74805 4.74219 2.74805H8.03197C8.22318 2.74805 8.39332 2.86945 8.45558 3.05025L8.88903 4.30968C8.95129 4.49047 9.12143 4.61188 9.31264 4.61188H17.7264C17.9176 4.61188 18.0878 4.49047 18.15 4.30968L18.5835 3.05025C18.6457 2.86945 18.8159 2.74805 19.0071 2.74805H22.2969C22.9311 2.74805 23.4453 3.26222 23.4453 3.89648Z" fill="#D6FAEC"/>
<path d="M22.2969 2.74805H19.8359C20.4702 2.74805 20.9844 3.26222 20.9844 3.89648V38.1035C20.9844 38.7378 20.4702 39.252 19.8359 39.252H22.2969C22.9311 39.252 23.4453 38.7378 23.4453 38.1035V3.89648C23.4453 3.26222 22.9311 2.74805 22.2969 2.74805Z" fill="#CCFAE8"/>
<path d="M16.7188 33.9609H10.3203C9.36891 33.9609 8.59766 33.1897 8.59766 32.2383C8.59766 31.2869 9.36891 30.5156 10.3203 30.5156H16.7188C17.6701 30.5156 18.4414 31.2869 18.4414 32.2383C18.4414 33.1897 17.6701 33.9609 16.7188 33.9609Z" fill="#2FD9E7"/>
<path d="M36.9287 26.8242H8.64942C7.76003 26.8242 7.03906 26.1032 7.03906 25.2139V8.74707C7.03906 7.85769 7.76003 7.13672 8.64942 7.13672H36.9288C37.8181 7.13672 38.5391 7.85769 38.5391 8.74707V25.2139C38.5391 26.1032 37.8181 26.8242 36.9287 26.8242Z" fill="#2FD9E7"/>
<path d="M36.9287 7.13672H34.4678C35.3572 7.13672 36.0781 7.85769 36.0781 8.74699V25.2139C36.0781 26.1032 35.3572 26.8242 34.4678 26.8242H36.9287C37.8181 26.8242 38.5391 26.1032 38.5391 25.2139V8.74699C38.5391 7.85769 37.8181 7.13672 36.9287 7.13672Z" fill="#00D0E4"/>
<path d="M16.3086 14.6016H11.2227C10.9508 14.6016 10.7305 14.3812 10.7305 14.1094V10.8281C10.7305 10.5563 10.9508 10.3359 11.2227 10.3359H16.3086C16.5804 10.3359 16.8008 10.5563 16.8008 10.8281V14.1094C16.8008 14.3812 16.5804 14.6016 16.3086 14.6016Z" fill="#FFE589"/>
<path d="M14.2578 23.7746H7.03906V19.509H14.2578C15.4357 19.509 16.3906 20.464 16.3906 21.6418C16.3906 22.8198 15.4357 23.7746 14.2578 23.7746Z" fill="#FF6167"/>
<path d="M10.3204 29.9004C7.21817 30.0292 7.22055 34.4485 10.3204 34.5762H16.7189C19.8211 34.4474 19.8187 30.028 16.7189 29.9004H10.3204ZM17.8263 32.2383C17.8263 32.8489 17.3295 33.3457 16.7189 33.3457H10.3204C8.85092 33.2848 8.85207 31.1912 10.3204 31.1309H16.7189C17.3295 31.1309 17.8263 31.6276 17.8263 32.2383Z" fill="black"/>
<path d="M36.9287 6.52148H33.7969C32.9823 6.5497 32.9829 7.72406 33.7969 7.75195H36.9287C37.4774 7.75195 37.9238 8.19829 37.9238 8.74707V25.2139C37.9238 25.7626 37.4775 26.209 36.9287 26.209H8.64942C8.10071 26.209 7.6543 25.7627 7.6543 25.2139V24.39H14.2578C17.9043 24.2386 17.9016 19.044 14.2578 18.8939H7.6543V8.74707C7.6543 8.19837 8.10063 7.75195 8.64942 7.75195H30.9049C31.7196 7.72373 31.7189 6.54938 30.9049 6.52148H26.1934V3.89648C26.1934 1.748 24.4454 0 22.2969 0H4.74219C2.59371 0 0.845703 1.748 0.845703 3.89648V7.42703C0.873922 8.24168 2.04828 8.24102 2.07617 7.42703V3.89648C2.07617 2.4264 3.27211 1.23047 4.74219 1.23047H22.2969C23.767 1.23047 24.9629 2.4264 24.9629 3.89648V6.52148H24.0605V3.89648C24.0605 2.924 23.2694 2.13281 22.2969 2.13281H19.0074C18.554 2.13281 18.1498 2.42066 18.0015 2.84985L17.6073 3.99656H9.43159L9.0371 2.84903C8.88911 2.42066 8.48503 2.13289 8.03148 2.13289H4.74219C3.76971 2.13289 2.97852 2.92409 2.97852 3.89657V38.1036C2.97852 39.0761 3.76971 39.8673 4.74219 39.8673H22.2969C23.2694 39.8673 24.0605 39.0761 24.0605 38.1036V36.18C24.0323 35.3653 22.858 35.366 22.8301 36.18V38.1036C22.8301 38.3976 22.5909 38.6368 22.2969 38.6368H4.74219C4.44819 38.6368 4.20898 38.3976 4.20898 38.1036V3.89657C4.20898 3.60257 4.44819 3.36336 4.74219 3.36336H7.91286L8.30735 4.51082C8.45525 4.93927 8.85934 5.22703 9.31297 5.22703H17.7261C18.1796 5.22703 18.5838 4.93918 18.732 4.51L19.1262 3.36328H22.2969C22.5909 3.36328 22.8301 3.60248 22.8301 3.89648V6.52148H8.64942C7.42223 6.52148 6.42383 7.51989 6.42383 8.74707V25.2139C6.42383 26.441 7.42223 27.4395 8.64942 27.4395H22.8301V33.3107C22.8583 34.1253 24.0327 34.1247 24.0605 33.3107V27.4395H24.9629V38.1035C24.9629 39.5736 23.767 40.7695 22.2969 40.7695H4.74219C3.27211 40.7695 2.07617 39.5736 2.07617 38.1035V10.3359C2.04795 9.52129 0.873594 9.52194 0.845703 10.3359V38.1035C0.845703 40.252 2.59371 42 4.74219 42H22.2969C24.4454 42 26.1934 40.252 26.1934 38.1035V27.4395H36.9287C38.1559 27.4395 39.1543 26.441 39.1543 25.2139V8.74707C39.1543 7.51989 38.1559 6.52148 36.9287 6.52148ZM14.2578 20.1244C16.2716 20.208 16.27 23.0767 14.2578 23.1596H7.6543V20.1244H14.2578Z" fill="black"/>
<path d="M27.4794 24.5891C27.7968 24.7102 28.1524 24.5507 28.2734 24.2332L28.5662 23.4644H30.5794L30.8689 24.2315C30.9885 24.5525 31.3521 24.7091 31.6617 24.5898C31.9796 24.4699 32.14 24.1149 32.02 23.7969L30.2546 19.119C30.2526 19.1133 30.2503 19.1076 30.248 19.102C30.136 18.83 29.8737 18.6544 29.5797 18.6544H29.5787C29.2842 18.6547 29.0219 18.8311 28.9105 19.1038C28.9086 19.1084 28.9068 19.1129 28.9051 19.1175L27.1235 23.7952C27.0025 24.1127 27.162 24.4681 27.4794 24.5891ZM29.5774 20.8094L30.115 22.2339H29.0348L29.5774 20.8094Z" fill="black"/>
<path d="M33.0977 21.7731L33.0922 24.0127C33.0914 24.3525 33.3662 24.6287 33.7059 24.6295H33.7074C34.0465 24.6295 34.3218 24.355 34.3226 24.0158L34.3281 21.7739L35.732 19.6173C35.9174 19.3325 35.8369 18.9514 35.5521 18.766C35.2674 18.5805 34.8862 18.6611 34.7009 18.9459L33.7126 20.4641L32.713 18.9332C32.5271 18.6487 32.1461 18.5688 31.8615 18.7544C31.577 18.9402 31.4969 19.3214 31.6826 19.606L33.0977 21.7731Z" fill="black"/>
<path d="M23.6442 24.0146C23.6724 24.8293 24.8468 24.8286 24.8747 24.0146V22.5656C25.1344 22.5643 25.4159 22.5632 25.5805 22.5632C28.208 22.4554 28.2068 18.762 25.5805 18.6548H24.2594C23.9282 18.6482 23.6366 18.9408 23.6442 19.2719V24.0146ZM25.5805 19.8852C25.9869 19.8852 26.3304 20.2166 26.3304 20.6089C26.3304 21.0012 25.9869 21.3326 25.5805 21.3326C25.417 21.3326 25.1389 21.3337 24.8805 21.3351C24.8772 20.7247 24.8783 20.514 24.8765 19.8852H25.5805V19.8852Z" fill="black"/>
<path d="M11.2227 9.7207C10.612 9.7207 10.1152 10.2175 10.1152 10.8281V14.1094C10.1152 14.72 10.612 15.2168 11.2227 15.2168H16.3086C16.9192 15.2168 17.416 14.72 17.416 14.1094V10.8281C17.416 10.2175 16.9192 9.7207 16.3086 9.7207H11.2227ZM16.1855 13.9863H11.3457V10.9512H16.1855V13.9863Z" fill="black"/>
<path d="M21.4688 11.818V12.8023C21.497 13.617 22.6713 13.6163 22.6992 12.8023V11.818C22.6711 11.0033 21.4966 11.004 21.4688 11.818Z" fill="black"/>
<path d="M32.2314 13.4176C32.5713 13.4176 32.8467 13.1422 32.8467 12.8023V11.818C32.8185 11.0033 31.6441 11.004 31.6162 11.818V12.8023C31.6162 13.1422 31.8917 13.4176 32.2314 13.4176Z" fill="black"/>
<path d="M35.0396 12.8023V11.818C35.0113 11.0033 33.837 11.004 33.8091 11.818V12.8023C33.8372 13.617 35.0117 13.6164 35.0396 12.8023Z" fill="black"/>
<path d="M25.8833 12.8023V11.818C25.8551 11.0033 24.6807 11.004 24.6528 11.818V12.8023C24.681 13.617 25.8554 13.6164 25.8833 12.8023Z" fill="black"/>
<path d="M27.5928 13.4176C27.9326 13.4176 28.208 13.1422 28.208 12.8023V11.818C28.1798 11.0033 27.0054 11.004 26.9775 11.818V12.8023C26.9775 13.1422 27.2529 13.4176 27.5928 13.4176Z" fill="black"/>
</svg>
