<svg width="42" height="38" viewBox="0 0 42 38" fill="none" xmlns="http://www.w3.org/2000/svg">
<path d="M0.820312 3.04077H41.1797V9.60327H0.820312V3.04077Z" fill="#D1AEE5"/>
<path d="M0.820312 9.60327H41.1797V29.7815H0.820312V9.60327Z" fill="#EEFAFF"/>
<path d="M23.8491 0.980713H27.1304V6.32218H23.8491V0.980713Z" fill="#EEFAFF"/>
<path d="M14.8696 0.980713H18.1509V6.32218H14.8696V0.980713Z" fill="#EEFAFF"/>
<path d="M32.8281 0.980713H36.1094V6.32218H32.8281V0.980713Z" fill="#EEFAFF"/>
<path d="M5.89062 0.980713H9.17187V6.32218H5.89062V0.980713Z" fill="#EEFAFF"/>
<path d="M5.61084 13.5949H9.7124V17.6965H5.61084V13.5949Z" fill="#FFF2A0"/>
<path d="M14.5029 13.5949H18.6045V17.6965H14.5029V13.5949Z" fill="#FFF2A0"/>
<path d="M23.395 13.5949H27.4966V17.6965H23.395V13.5949Z" fill="#FFF2A0"/>
<path d="M32.2876 13.5949H36.3892V17.6965H32.2876V13.5949Z" fill="#FFF2A0"/>
<path d="M5.61084 21.6881H9.7124V25.7897H5.61084V21.6881Z" fill="#FFF2A0"/>
<path d="M14.5029 21.6881H18.6045V25.7897H14.5029V21.6881Z" fill="#FFF2A0"/>
<path d="M29.8921 37.0196C34.1256 37.0196 37.5575 33.5877 37.5575 29.3542C37.5575 25.1206 34.1256 21.6887 29.8921 21.6887C25.6585 21.6887 22.2266 25.1206 22.2266 29.3542C22.2266 33.5877 25.6585 37.0196 29.8921 37.0196Z" fill="#FF7D97"/>
<path d="M12.021 30.6019C12.474 30.6019 12.8413 30.2346 12.8413 29.7816C12.8413 29.3285 12.474 28.9612 12.021 28.9612C11.568 28.9612 11.2007 29.3285 11.2007 29.7816C11.2007 30.2346 11.568 30.6019 12.021 30.6019Z" fill="black"/>
<path d="M41.1797 2.22053H36.9296V0.980713C36.9296 0.527736 36.5623 0.1604 36.1093 0.1604H32.8281C32.375 0.1604 32.0078 0.527736 32.0078 0.980713V2.22053H27.9505V0.980713C27.9505 0.527736 27.5832 0.1604 27.1302 0.1604H23.8489C23.396 0.1604 23.0286 0.527736 23.0286 0.980713V2.22053H18.9714V0.980713C18.9714 0.527736 18.6041 0.1604 18.1511 0.1604H14.8698C14.4167 0.1604 14.0495 0.527736 14.0495 0.980713V2.22053H9.99223V0.980713C9.99223 0.527736 9.62497 0.1604 9.17191 0.1604H5.89066C5.43761 0.1604 5.07035 0.527736 5.07035 0.980713V2.22053H0.820312C0.367254 2.22053 0 2.58787 0 3.04085V29.7814C0 30.2344 0.367254 30.6017 0.820312 30.6017H8.32945C8.78251 30.6017 9.14977 30.2344 9.14977 29.7814C9.14977 29.3284 8.78251 28.9611 8.32945 28.9611H1.64062V10.4237H40.3594V28.9611H38.3686C38.1626 24.4637 34.4396 20.8681 29.8922 20.8681C25.3448 20.8681 21.6218 24.4637 21.4157 28.9611H15.7123C15.2592 28.9611 14.892 29.3284 14.892 29.7814C14.892 30.2344 15.2592 30.6017 15.7123 30.6017H21.4983C22.1036 34.6913 25.637 37.8397 29.8922 37.8397C34.1474 37.8397 37.6807 34.6913 38.286 30.6017H41.1797C41.6327 30.6017 42 30.2344 42 29.7814V3.04085C42 2.58787 41.6327 2.22053 41.1797 2.22053ZM29.8922 36.199C26.1177 36.199 23.047 33.1283 23.047 29.3539C23.047 25.5794 26.1178 22.5088 29.8922 22.5088C33.6666 22.5088 36.7373 25.5795 36.7373 29.3539C36.7374 33.1283 33.6666 36.199 29.8922 36.199ZM33.6484 1.80103H35.289V5.50187H33.6484V1.80103ZM24.6693 1.80103H26.3099V5.50187H24.6693V1.80103ZM15.6901 1.80103H17.3307V5.50187H15.6901V1.80103ZM6.71106 1.80103H8.35168V5.50187H6.71106V1.80103ZM1.64062 8.78312V3.86116H5.07043V6.32218C5.07043 6.77516 5.43769 7.14249 5.89075 7.14249H9.172C9.62505 7.14249 9.99231 6.77516 9.99231 6.32218V3.86116H14.0496V6.32218C14.0496 6.77516 14.4168 7.14249 14.8699 7.14249H18.1511C18.6042 7.14249 18.9714 6.77516 18.9714 6.32218V3.86116H23.0287V6.32218C23.0287 6.77516 23.396 7.14249 23.849 7.14249H27.1303C27.5833 7.14249 27.9506 6.77516 27.9506 6.32218V3.86116H32.0078V6.32218C32.0078 6.77516 32.375 7.14249 32.8281 7.14249H36.1093C36.5623 7.14249 36.9296 6.77516 36.9296 6.32218V3.86116H40.3594V8.78312H1.64062Z" fill="black"/>
<path d="M9.7124 12.7746H5.61084C5.15778 12.7746 4.79053 13.1419 4.79053 13.5949V17.6965C4.79053 18.1494 5.15778 18.5168 5.61084 18.5168H9.7124C10.1655 18.5168 10.5327 18.1494 10.5327 17.6965V13.5949C10.5327 13.1419 10.1655 12.7746 9.7124 12.7746ZM8.89209 16.8762H6.43115V14.4152H8.89209V16.8762Z" fill="black"/>
<path d="M14.5029 18.5168H18.6045C19.0576 18.5168 19.4248 18.1494 19.4248 17.6965V13.5949C19.4248 13.1419 19.0576 12.7746 18.6045 12.7746H14.5029C14.0499 12.7746 13.6826 13.1419 13.6826 13.5949V17.6965C13.6826 18.1495 14.0499 18.5168 14.5029 18.5168ZM15.3232 14.4152H17.7842V16.8762H15.3232V14.4152Z" fill="black"/>
<path d="M27.4971 18.5168C27.95 18.5168 28.3174 18.1494 28.3174 17.6965V13.5949C28.3174 13.1419 27.95 12.7746 27.4971 12.7746H23.3955C22.9425 12.7746 22.5752 13.1419 22.5752 13.5949V17.6965C22.5752 18.1494 22.9425 18.5168 23.3955 18.5168H27.4971ZM24.2158 14.4152H26.6768V16.8762H24.2158V14.4152Z" fill="black"/>
<path d="M36.3892 18.5168C36.8421 18.5168 37.2095 18.1494 37.2095 17.6965V13.5949C37.2095 13.1419 36.8421 12.7746 36.3892 12.7746H32.2876C31.8345 12.7746 31.4673 13.1419 31.4673 13.5949V17.6965C31.4673 18.1494 31.8345 18.5168 32.2876 18.5168H36.3892ZM33.1079 14.4152H35.5688V16.8762H33.1079V14.4152Z" fill="black"/>
<path d="M9.7124 20.8683H5.61084C5.15778 20.8683 4.79053 21.2357 4.79053 21.6887V25.7902C4.79053 26.2432 5.15778 26.6105 5.61084 26.6105H9.7124C10.1655 26.6105 10.5327 26.2432 10.5327 25.7902V21.6887C10.5327 21.2357 10.1655 20.8683 9.7124 20.8683ZM8.89209 24.9699H6.43115V22.509H8.89209V24.9699Z" fill="black"/>
<path d="M19.4248 25.7902V21.6887C19.4248 21.2357 19.0576 20.8683 18.6045 20.8683H14.5029C14.0499 20.8683 13.6826 21.2357 13.6826 21.6887V25.7902C13.6826 26.2432 14.0499 26.6105 14.5029 26.6105H18.6045C19.0576 26.6105 19.4248 26.2433 19.4248 25.7902ZM17.7842 24.9699H15.3232V22.509H17.7842V24.9699Z" fill="black"/>
<path d="M32.5721 26.674C32.2517 26.3537 31.7324 26.3537 31.4119 26.674L27.2124 30.8735C26.8921 31.1938 26.8921 31.7132 27.2124 32.0336C27.3726 32.1938 27.5825 32.2739 27.7925 32.2739C28.0025 32.2739 28.2123 32.1938 28.3725 32.0336L32.572 27.8341C32.8925 27.5137 32.8925 26.9943 32.5721 26.674Z" fill="black"/>
<path d="M27.5718 27.8542C28.0248 27.8542 28.3921 27.487 28.3921 27.0339C28.3921 26.5809 28.0248 26.2136 27.5718 26.2136C27.1187 26.2136 26.7515 26.5809 26.7515 27.0339C26.7515 27.487 27.1187 27.8542 27.5718 27.8542Z" fill="black"/>
<path d="M32.2124 32.4944C32.6654 32.4944 33.0327 32.1271 33.0327 31.6741C33.0327 31.221 32.6654 30.8538 32.2124 30.8538C31.7594 30.8538 31.3921 31.221 31.3921 31.6741C31.3921 32.1271 31.7594 32.4944 32.2124 32.4944Z" fill="black"/>
</svg>
